<svg xmlns="http://www.w3.org/2000/svg" xmlns:xlink="http://www.w3.org/1999/xlink" width="1123" zoomAndPan="magnify" viewBox="0 0 841.92 595.499987" height="794" preserveAspectRatio="xMidYMid meet" version="1.0"><defs><g/><clipPath id="cbb0283791"><path d="M 0.3125 124 L 841.527344 124 L 841.527344 475 L 0.3125 475 Z M 0.3125 124 " clip-rule="nonzero"/></clipPath><clipPath id="f2ee504f88"><path d="M 0.3125 0.792969 L 841.527344 0.792969 L 841.527344 347.335938 L 0.3125 347.335938 Z M 0.3125 0.792969 " clip-rule="nonzero"/></clipPath><clipPath id="55d8f5c1df"><rect x="0" width="842" y="0" height="351"/></clipPath></defs><g clip-path="url(#cbb0283791)"><g transform="matrix(1, 0, 0, 1, 0, 124)"><g clip-path="url(#55d8f5c1df)"><g clip-path="url(#f2ee504f88)"><rect x="-185.2224" width="1212.3648" fill="#ffffff" height="857.519982" y="-255.009997" fill-opacity="1"/><path fill="#070404" d="M 867.226562 447.871094 L -127.5 447.871094 C -129.542969 447.871094 -131.148438 446.261719 -131.148438 444.214844 L -131.148438 -96.886719 C -131.148438 -98.933594 -129.542969 -100.542969 -127.5 -100.542969 L 867.226562 -100.542969 C 869.273438 -100.542969 870.878906 -98.933594 870.878906 -96.886719 L 870.878906 444.214844 C 870.878906 446.261719 869.273438 447.871094 867.226562 447.871094 Z M -123.847656 440.558594 L 863.574219 440.558594 L 863.574219 -93.230469 L -123.847656 -93.230469 Z M -123.847656 440.558594 " fill-opacity="1" fill-rule="nonzero"/></g><g fill="#000000" fill-opacity="1"><g transform="translate(698.044102, 320.749358)"><g><path d="M 27.9375 -31.0625 C 27.9375 -28.46875 27.207031 -26.34375 25.75 -24.6875 C 24.300781 -23.039062 22.242188 -21.941406 19.578125 -21.390625 L 19.578125 -21.171875 C 22.835938 -20.765625 25.253906 -19.726562 26.828125 -18.0625 C 28.410156 -16.394531 29.203125 -14.207031 29.203125 -11.5 C 29.203125 -7.625 27.859375 -4.644531 25.171875 -2.5625 C 22.484375 -0.476562 18.664062 0.5625 13.71875 0.5625 C 11.570312 0.5625 9.601562 0.394531 7.8125 0.0625 C 6.03125 -0.257812 4.296875 -0.828125 2.609375 -1.640625 L 2.609375 -6.03125 C 4.367188 -5.15625 6.242188 -4.488281 8.234375 -4.03125 C 10.222656 -3.582031 12.109375 -3.359375 13.890625 -3.359375 C 20.910156 -3.359375 24.421875 -6.109375 24.421875 -11.609375 C 24.421875 -16.535156 20.550781 -19 12.8125 -19 L 8.8125 -19 L 8.8125 -22.96875 L 12.859375 -22.96875 C 16.023438 -22.96875 18.535156 -23.664062 20.390625 -25.0625 C 22.242188 -26.46875 23.171875 -28.410156 23.171875 -30.890625 C 23.171875 -32.867188 22.488281 -34.421875 21.125 -35.546875 C 19.757812 -36.679688 17.910156 -37.25 15.578125 -37.25 C 13.804688 -37.25 12.128906 -37.007812 10.546875 -36.53125 C 8.972656 -36.050781 7.179688 -35.160156 5.171875 -33.859375 L 2.828125 -36.96875 C 4.492188 -38.289062 6.414062 -39.328125 8.59375 -40.078125 C 10.769531 -40.828125 13.0625 -41.203125 15.46875 -41.203125 C 19.414062 -41.203125 22.476562 -40.296875 24.65625 -38.484375 C 26.84375 -36.679688 27.9375 -34.207031 27.9375 -31.0625 Z M 27.9375 -31.0625 "/></g></g></g><g fill="#000000" fill-opacity="1"><g transform="translate(730.567363, 320.749358)"><g><path d="M 3.25 -17.359375 C 3.25 -25.335938 4.800781 -31.304688 7.90625 -35.265625 C 11.007812 -39.222656 15.597656 -41.203125 21.671875 -41.203125 C 23.765625 -41.203125 25.410156 -41.023438 26.609375 -40.671875 L 26.609375 -36.703125 C 25.179688 -37.160156 23.550781 -37.390625 21.71875 -37.390625 C 17.363281 -37.390625 14.039062 -36.03125 11.75 -33.3125 C 9.457031 -30.601562 8.195312 -26.34375 7.96875 -20.53125 L 8.3125 -20.53125 C 10.34375 -23.71875 13.5625 -25.3125 17.96875 -25.3125 C 21.613281 -25.3125 24.488281 -24.207031 26.59375 -22 C 28.695312 -19.789062 29.75 -16.800781 29.75 -13.03125 C 29.75 -8.800781 28.59375 -5.476562 26.28125 -3.0625 C 23.976562 -0.644531 20.863281 0.5625 16.9375 0.5625 C 12.738281 0.5625 9.40625 -1.015625 6.9375 -4.171875 C 4.476562 -7.335938 3.25 -11.734375 3.25 -17.359375 Z M 16.890625 -3.359375 C 19.515625 -3.359375 21.550781 -4.1875 23 -5.84375 C 24.457031 -7.5 25.1875 -9.894531 25.1875 -13.03125 C 25.1875 -15.71875 24.507812 -17.828125 23.15625 -19.359375 C 21.8125 -20.898438 19.796875 -21.671875 17.109375 -21.671875 C 15.441406 -21.671875 13.910156 -21.328125 12.515625 -20.640625 C 11.128906 -19.953125 10.023438 -19.003906 9.203125 -17.796875 C 8.378906 -16.597656 7.96875 -15.351562 7.96875 -14.0625 C 7.96875 -12.144531 8.335938 -10.363281 9.078125 -8.71875 C 9.816406 -7.070312 10.867188 -5.765625 12.234375 -4.796875 C 13.597656 -3.835938 15.148438 -3.359375 16.890625 -3.359375 Z M 16.890625 -3.359375 "/></g></g></g><g fill="#000000" fill-opacity="1"><g transform="translate(763.090624, 320.749358)"><g><path d="M 29.703125 -20.359375 C 29.703125 -13.335938 28.59375 -8.09375 26.375 -4.625 C 24.164062 -1.164062 20.78125 0.5625 16.21875 0.5625 C 11.851562 0.5625 8.53125 -1.207031 6.25 -4.75 C 3.96875 -8.300781 2.828125 -13.503906 2.828125 -20.359375 C 2.828125 -27.429688 3.925781 -32.679688 6.125 -36.109375 C 8.332031 -39.535156 11.695312 -41.25 16.21875 -41.25 C 20.625 -41.25 23.972656 -39.460938 26.265625 -35.890625 C 28.554688 -32.316406 29.703125 -27.140625 29.703125 -20.359375 Z M 7.5 -20.359375 C 7.5 -14.453125 8.191406 -10.148438 9.578125 -7.453125 C 10.972656 -4.765625 13.1875 -3.421875 16.21875 -3.421875 C 19.289062 -3.421875 21.515625 -4.785156 22.890625 -7.515625 C 24.273438 -10.242188 24.96875 -14.523438 24.96875 -20.359375 C 24.96875 -26.191406 24.273438 -30.460938 22.890625 -33.171875 C 21.515625 -35.890625 19.289062 -37.25 16.21875 -37.25 C 13.1875 -37.25 10.972656 -35.910156 9.578125 -33.234375 C 8.191406 -30.554688 7.5 -26.265625 7.5 -20.359375 Z M 7.5 -20.359375 "/></g></g></g><g fill="#000000" fill-opacity="1"><g transform="translate(101.736667, 265.905355)"><g><path d="M 170.65625 0 L 125.25 0 L 51.96875 -127.4375 L 50.9375 -127.4375 C 52.394531 -104.925781 53.125 -88.875 53.125 -79.28125 L 53.125 0 L 21.203125 0 L 21.203125 -168.46875 L 66.25 -168.46875 L 139.421875 -42.28125 L 140.234375 -42.28125 C 139.078125 -64.175781 138.5 -79.65625 138.5 -88.71875 L 138.5 -168.46875 L 170.65625 -168.46875 Z M 170.65625 0 "/></g></g></g><g fill="#000000" fill-opacity="1"><g transform="translate(293.549213, 265.905355)"><g><path d="M 174.109375 -84.46875 C 174.109375 -56.582031 167.191406 -35.148438 153.359375 -20.171875 C 139.535156 -5.191406 119.71875 2.296875 93.90625 2.296875 C 68.09375 2.296875 48.273438 -5.191406 34.453125 -20.171875 C 20.628906 -35.148438 13.71875 -56.65625 13.71875 -84.6875 C 13.71875 -112.726562 20.648438 -134.140625 34.515625 -148.921875 C 48.378906 -163.710938 68.253906 -171.109375 94.140625 -171.109375 C 120.023438 -171.109375 139.820312 -163.65625 153.53125 -148.75 C 167.25 -133.851562 174.109375 -112.425781 174.109375 -84.46875 Z M 51.15625 -84.46875 C 51.15625 -65.644531 54.726562 -51.46875 61.875 -41.9375 C 69.019531 -32.414062 79.695312 -27.65625 93.90625 -27.65625 C 122.40625 -27.65625 136.65625 -46.59375 136.65625 -84.46875 C 136.65625 -122.414062 122.484375 -141.390625 94.140625 -141.390625 C 79.929688 -141.390625 69.210938 -136.601562 61.984375 -127.03125 C 54.765625 -117.46875 51.15625 -103.28125 51.15625 -84.46875 Z M 51.15625 -84.46875 "/></g></g></g><g fill="#000000" fill-opacity="1"><g transform="translate(481.329665, 265.905355)"><g><path d="M 157.40625 0 L 116.609375 0 L 77.4375 -63.71875 L 38.25 0 L 0 0 L 55.890625 -86.875 L 3.578125 -168.46875 L 42.984375 -168.46875 L 79.28125 -107.859375 L 114.875 -168.46875 L 153.359375 -168.46875 L 100.484375 -84.921875 Z M 157.40625 0 "/></g></g></g></g></g></g></svg>